<mxfile host="drawio-plugin" agent="Mozilla/5.0 (Windows NT 10.0; Win64; x64) AppleWebKit/537.36 (KHTML, like Gecko) Chrome/122.0.0.0 Safari/537.36" modified="2025-01-26T17:56:59.150Z" etag="IH90iSbrGCisJwMHALSQ" version="22.1.22" type="embed" pages="2">
  <diagram name="Core" id="74e2e168-ea6b-b213-b513-2b3c1d86103e">
    <mxGraphModel dx="988" dy="517" grid="1" gridSize="10" guides="1" tooltips="1" connect="1" arrows="1" fold="1" page="1" pageScale="1" pageWidth="1100" pageHeight="850" background="none" math="0" shadow="0">
      <root>
        <mxCell id="0" />
        <mxCell id="1" parent="0" />
        <mxCell id="8il4gLIDHbuwUqytjjS0-107" value="&lt;b&gt;&lt;font style=&quot;font-size: 14px;&quot;&gt;Craft Creator Core&lt;/font&gt;&lt;/b&gt;" style="rounded=1;whiteSpace=wrap;html=1;shadow=0;labelBackgroundColor=none;strokeWidth=1;fontFamily=Verdana;fontSize=8;align=center;" vertex="1" parent="1">
          <mxGeometry x="440" y="333" width="175" height="100" as="geometry" />
        </mxCell>
        <mxCell id="8il4gLIDHbuwUqytjjS0-150" value="" style="endArrow=none;html=1;rounded=0;entryX=1;entryY=0.5;entryDx=0;entryDy=0;exitX=0;exitY=0.5;exitDx=0;exitDy=0;" edge="1" parent="1" source="8il4gLIDHbuwUqytjjS0-107" target="8il4gLIDHbuwUqytjjS0-124">
          <mxGeometry width="50" height="50" relative="1" as="geometry">
            <mxPoint x="540" y="320" as="sourcePoint" />
            <mxPoint x="590" y="270" as="targetPoint" />
          </mxGeometry>
        </mxCell>
        <mxCell id="8il4gLIDHbuwUqytjjS0-155" value="Items/Blocks" style="swimlane;whiteSpace=wrap;html=1;" vertex="1" parent="1">
          <mxGeometry x="1390" y="1020" width="640" height="450" as="geometry" />
        </mxCell>
        <mxCell id="8il4gLIDHbuwUqytjjS0-132" value="&lt;i&gt;&amp;lt;&amp;lt;Abstract&amp;gt;&amp;gt;&lt;br&gt;CCItemRegistry&lt;/i&gt;" style="swimlane;fontStyle=0;childLayout=stackLayout;horizontal=1;startSize=40;fillColor=none;horizontalStack=0;resizeParent=1;resizeParentMax=0;resizeLast=0;collapsible=1;marginBottom=0;whiteSpace=wrap;html=1;" vertex="1" parent="8il4gLIDHbuwUqytjjS0-155">
          <mxGeometry x="30" y="58" width="170" height="100" as="geometry" />
        </mxCell>
        <mxCell id="8il4gLIDHbuwUqytjjS0-133" value="+ ITEMS: List&amp;lt;CCItem&amp;gt;" style="text;strokeColor=none;fillColor=none;align=left;verticalAlign=top;spacingLeft=4;spacingRight=4;overflow=hidden;rotatable=0;points=[[0,0.5],[1,0.5]];portConstraint=eastwest;whiteSpace=wrap;html=1;" vertex="1" parent="8il4gLIDHbuwUqytjjS0-132">
          <mxGeometry y="40" width="170" height="26" as="geometry" />
        </mxCell>
        <mxCell id="8il4gLIDHbuwUqytjjS0-144" value="" style="line;strokeWidth=1;fillColor=none;align=left;verticalAlign=middle;spacingTop=-1;spacingLeft=3;spacingRight=3;rotatable=0;labelPosition=right;points=[];portConstraint=eastwest;strokeColor=inherit;" vertex="1" parent="8il4gLIDHbuwUqytjjS0-132">
          <mxGeometry y="66" width="170" height="8" as="geometry" />
        </mxCell>
        <mxCell id="8il4gLIDHbuwUqytjjS0-135" value="&lt;i&gt;+ registerItems(): void&lt;/i&gt;" style="text;strokeColor=none;fillColor=none;align=left;verticalAlign=top;spacingLeft=4;spacingRight=4;overflow=hidden;rotatable=0;points=[[0,0.5],[1,0.5]];portConstraint=eastwest;whiteSpace=wrap;html=1;" vertex="1" parent="8il4gLIDHbuwUqytjjS0-132">
          <mxGeometry y="74" width="170" height="26" as="geometry" />
        </mxCell>
        <mxCell id="8il4gLIDHbuwUqytjjS0-151" value="&lt;i&gt;&amp;lt;&amp;lt;Abstract&amp;gt;&amp;gt;&lt;br&gt;CCBlockRegistry&lt;/i&gt;" style="swimlane;fontStyle=0;childLayout=stackLayout;horizontal=1;startSize=40;fillColor=none;horizontalStack=0;resizeParent=1;resizeParentMax=0;resizeLast=0;collapsible=1;marginBottom=0;whiteSpace=wrap;html=1;" vertex="1" parent="8il4gLIDHbuwUqytjjS0-155">
          <mxGeometry x="232.5" y="58" width="170" height="100" as="geometry" />
        </mxCell>
        <mxCell id="8il4gLIDHbuwUqytjjS0-152" value="+ BLOCKS: List&amp;lt;CCBlock&amp;gt;" style="text;strokeColor=none;fillColor=none;align=left;verticalAlign=top;spacingLeft=4;spacingRight=4;overflow=hidden;rotatable=0;points=[[0,0.5],[1,0.5]];portConstraint=eastwest;whiteSpace=wrap;html=1;" vertex="1" parent="8il4gLIDHbuwUqytjjS0-151">
          <mxGeometry y="40" width="170" height="26" as="geometry" />
        </mxCell>
        <mxCell id="8il4gLIDHbuwUqytjjS0-153" value="" style="line;strokeWidth=1;fillColor=none;align=left;verticalAlign=middle;spacingTop=-1;spacingLeft=3;spacingRight=3;rotatable=0;labelPosition=right;points=[];portConstraint=eastwest;strokeColor=inherit;" vertex="1" parent="8il4gLIDHbuwUqytjjS0-151">
          <mxGeometry y="66" width="170" height="8" as="geometry" />
        </mxCell>
        <mxCell id="8il4gLIDHbuwUqytjjS0-154" value="&lt;i&gt;+ registerBlocks(): void&lt;/i&gt;" style="text;strokeColor=none;fillColor=none;align=left;verticalAlign=top;spacingLeft=4;spacingRight=4;overflow=hidden;rotatable=0;points=[[0,0.5],[1,0.5]];portConstraint=eastwest;whiteSpace=wrap;html=1;" vertex="1" parent="8il4gLIDHbuwUqytjjS0-151">
          <mxGeometry y="74" width="170" height="26" as="geometry" />
        </mxCell>
        <mxCell id="8il4gLIDHbuwUqytjjS0-140" value="CCBlockItem" style="swimlane;fontStyle=0;childLayout=stackLayout;horizontal=1;startSize=26;fillColor=none;horizontalStack=0;resizeParent=1;resizeParentMax=0;resizeLast=0;collapsible=1;marginBottom=0;whiteSpace=wrap;html=1;" vertex="1" parent="8il4gLIDHbuwUqytjjS0-155">
          <mxGeometry x="450" y="288" width="140" height="52" as="geometry" />
        </mxCell>
        <mxCell id="8il4gLIDHbuwUqytjjS0-141" value="- block: CCBlock" style="text;strokeColor=none;fillColor=none;align=left;verticalAlign=top;spacingLeft=4;spacingRight=4;overflow=hidden;rotatable=0;points=[[0,0.5],[1,0.5]];portConstraint=eastwest;whiteSpace=wrap;html=1;" vertex="1" parent="8il4gLIDHbuwUqytjjS0-140">
          <mxGeometry y="26" width="140" height="26" as="geometry" />
        </mxCell>
        <mxCell id="8il4gLIDHbuwUqytjjS0-145" value="CCItem" style="swimlane;fontStyle=0;childLayout=stackLayout;horizontal=1;startSize=26;fillColor=none;horizontalStack=0;resizeParent=1;resizeParentMax=0;resizeLast=0;collapsible=1;marginBottom=0;whiteSpace=wrap;html=1;" vertex="1" parent="8il4gLIDHbuwUqytjjS0-155">
          <mxGeometry x="450" y="108" width="140" height="78" as="geometry" />
        </mxCell>
        <mxCell id="8il4gLIDHbuwUqytjjS0-146" value="- id: Identifier" style="text;strokeColor=none;fillColor=none;align=left;verticalAlign=top;spacingLeft=4;spacingRight=4;overflow=hidden;rotatable=0;points=[[0,0.5],[1,0.5]];portConstraint=eastwest;whiteSpace=wrap;html=1;" vertex="1" parent="8il4gLIDHbuwUqytjjS0-145">
          <mxGeometry y="26" width="140" height="26" as="geometry" />
        </mxCell>
        <mxCell id="8il4gLIDHbuwUqytjjS0-147" value="- stackSize: int" style="text;strokeColor=none;fillColor=none;align=left;verticalAlign=top;spacingLeft=4;spacingRight=4;overflow=hidden;rotatable=0;points=[[0,0.5],[1,0.5]];portConstraint=eastwest;whiteSpace=wrap;html=1;" vertex="1" parent="8il4gLIDHbuwUqytjjS0-145">
          <mxGeometry y="52" width="140" height="26" as="geometry" />
        </mxCell>
        <mxCell id="8il4gLIDHbuwUqytjjS0-148" style="edgeStyle=orthogonalEdgeStyle;rounded=0;orthogonalLoop=1;jettySize=auto;html=1;exitX=0.5;exitY=0;exitDx=0;exitDy=0;curved=0;endArrow=block;endFill=1;" edge="1" parent="8il4gLIDHbuwUqytjjS0-155" source="8il4gLIDHbuwUqytjjS0-140" target="8il4gLIDHbuwUqytjjS0-145">
          <mxGeometry relative="1" as="geometry" />
        </mxCell>
        <mxCell id="8il4gLIDHbuwUqytjjS0-156" value="Containers" style="swimlane;whiteSpace=wrap;html=1;" vertex="1" parent="1">
          <mxGeometry x="1100" y="325" width="200" height="200" as="geometry" />
        </mxCell>
        <mxCell id="8il4gLIDHbuwUqytjjS0-157" value="Screens" style="swimlane;whiteSpace=wrap;html=1;" vertex="1" parent="1">
          <mxGeometry x="2130" y="620" width="200" height="200" as="geometry" />
        </mxCell>
        <mxCell id="8il4gLIDHbuwUqytjjS0-159" value="Recipes" style="swimlane;whiteSpace=wrap;html=1;" vertex="1" parent="1">
          <mxGeometry x="70" y="240" width="200" height="200" as="geometry" />
        </mxCell>
        <mxCell id="8il4gLIDHbuwUqytjjS0-123" value="&amp;lt;&amp;lt;interface&amp;gt;&amp;gt;&lt;br&gt;&lt;b&gt;IRecipeCreator&lt;/b&gt;" style="swimlane;fontStyle=0;childLayout=stackLayout;horizontal=1;startSize=40;fillColor=none;horizontalStack=0;resizeParent=1;resizeParentMax=0;resizeLast=0;collapsible=1;marginBottom=0;whiteSpace=wrap;html=1;" vertex="1" parent="8il4gLIDHbuwUqytjjS0-159">
          <mxGeometry x="20" y="90" width="140" height="92" as="geometry" />
        </mxCell>
        <mxCell id="8il4gLIDHbuwUqytjjS0-124" value="+ register" style="text;strokeColor=none;fillColor=none;align=left;verticalAlign=top;spacingLeft=4;spacingRight=4;overflow=hidden;rotatable=0;points=[[0,0.5],[1,0.5]];portConstraint=eastwest;whiteSpace=wrap;html=1;" vertex="1" parent="8il4gLIDHbuwUqytjjS0-123">
          <mxGeometry y="40" width="140" height="26" as="geometry" />
        </mxCell>
        <mxCell id="8il4gLIDHbuwUqytjjS0-125" value="&amp;nbsp;field: type" style="text;strokeColor=none;fillColor=none;align=left;verticalAlign=top;spacingLeft=4;spacingRight=4;overflow=hidden;rotatable=0;points=[[0,0.5],[1,0.5]];portConstraint=eastwest;whiteSpace=wrap;html=1;" vertex="1" parent="8il4gLIDHbuwUqytjjS0-123">
          <mxGeometry y="66" width="140" height="26" as="geometry" />
        </mxCell>
        <mxCell id="8il4gLIDHbuwUqytjjS0-160" value="Base" style="swimlane;whiteSpace=wrap;html=1;" vertex="1" parent="1">
          <mxGeometry x="150" y="830" width="830" height="370" as="geometry" />
        </mxCell>
        <mxCell id="8il4gLIDHbuwUqytjjS0-126" value="Identifier" style="swimlane;fontStyle=0;childLayout=stackLayout;horizontal=1;startSize=26;fillColor=none;horizontalStack=0;resizeParent=1;resizeParentMax=0;resizeLast=0;collapsible=1;marginBottom=0;whiteSpace=wrap;html=1;" vertex="1" parent="8il4gLIDHbuwUqytjjS0-160">
          <mxGeometry x="42.5" y="50" width="250" height="110" as="geometry" />
        </mxCell>
        <mxCell id="8il4gLIDHbuwUqytjjS0-127" value="- namespace: String" style="text;strokeColor=none;fillColor=none;align=left;verticalAlign=top;spacingLeft=4;spacingRight=4;overflow=hidden;rotatable=0;points=[[0,0.5],[1,0.5]];portConstraint=eastwest;whiteSpace=wrap;html=1;" vertex="1" parent="8il4gLIDHbuwUqytjjS0-126">
          <mxGeometry y="26" width="250" height="26" as="geometry" />
        </mxCell>
        <mxCell id="8il4gLIDHbuwUqytjjS0-128" value="- id: String" style="text;strokeColor=none;fillColor=none;align=left;verticalAlign=top;spacingLeft=4;spacingRight=4;overflow=hidden;rotatable=0;points=[[0,0.5],[1,0.5]];portConstraint=eastwest;whiteSpace=wrap;html=1;" vertex="1" parent="8il4gLIDHbuwUqytjjS0-126">
          <mxGeometry y="52" width="250" height="26" as="geometry" />
        </mxCell>
        <mxCell id="8il4gLIDHbuwUqytjjS0-129" value="" style="line;strokeWidth=1;fillColor=none;align=left;verticalAlign=middle;spacingTop=-1;spacingLeft=3;spacingRight=3;rotatable=0;labelPosition=right;points=[];portConstraint=eastwest;strokeColor=inherit;" vertex="1" parent="8il4gLIDHbuwUqytjjS0-126">
          <mxGeometry y="78" width="250" height="8" as="geometry" />
        </mxCell>
        <mxCell id="8il4gLIDHbuwUqytjjS0-130" value="+ Identifier(namespace: String, id: String)" style="text;strokeColor=none;fillColor=none;align=left;verticalAlign=top;spacingLeft=4;spacingRight=4;overflow=hidden;rotatable=0;points=[[0,0.5],[1,0.5]];portConstraint=eastwest;whiteSpace=wrap;html=1;" vertex="1" parent="8il4gLIDHbuwUqytjjS0-126">
          <mxGeometry y="86" width="250" height="24" as="geometry" />
        </mxCell>
        <mxCell id="8il4gLIDHbuwUqytjjS0-161" value="&amp;lt;&amp;lt;enum&amp;gt;&amp;gt;&lt;br&gt;&lt;b&gt;SupportedMods&lt;/b&gt;" style="swimlane;fontStyle=0;childLayout=stackLayout;horizontal=1;startSize=40;fillColor=none;horizontalStack=0;resizeParent=1;resizeParentMax=0;resizeLast=0;collapsible=1;marginBottom=0;whiteSpace=wrap;html=1;" vertex="1" parent="8il4gLIDHbuwUqytjjS0-160">
          <mxGeometry x="580" y="40" width="240" height="178" as="geometry" />
        </mxCell>
        <mxCell id="8il4gLIDHbuwUqytjjS0-162" value="+ modId: String" style="text;strokeColor=none;fillColor=none;align=left;verticalAlign=top;spacingLeft=4;spacingRight=4;overflow=hidden;rotatable=0;points=[[0,0.5],[1,0.5]];portConstraint=eastwest;whiteSpace=wrap;html=1;" vertex="1" parent="8il4gLIDHbuwUqytjjS0-161">
          <mxGeometry y="40" width="240" height="26" as="geometry" />
        </mxCell>
        <mxCell id="8il4gLIDHbuwUqytjjS0-167" value="" style="line;strokeWidth=1;fillColor=none;align=left;verticalAlign=middle;spacingTop=-1;spacingLeft=3;spacingRight=3;rotatable=0;labelPosition=right;points=[];portConstraint=eastwest;strokeColor=inherit;" vertex="1" parent="8il4gLIDHbuwUqytjjS0-161">
          <mxGeometry y="66" width="240" height="8" as="geometry" />
        </mxCell>
        <mxCell id="8il4gLIDHbuwUqytjjS0-163" value="- SupportedMods(modId: String)" style="text;strokeColor=none;fillColor=none;align=left;verticalAlign=top;spacingLeft=4;spacingRight=4;overflow=hidden;rotatable=0;points=[[0,0.5],[1,0.5]];portConstraint=eastwest;whiteSpace=wrap;html=1;" vertex="1" parent="8il4gLIDHbuwUqytjjS0-161">
          <mxGeometry y="74" width="240" height="26" as="geometry" />
        </mxCell>
        <mxCell id="8il4gLIDHbuwUqytjjS0-164" value="+ getModId(): String" style="text;strokeColor=none;fillColor=none;align=left;verticalAlign=top;spacingLeft=4;spacingRight=4;overflow=hidden;rotatable=0;points=[[0,0.5],[1,0.5]];portConstraint=eastwest;whiteSpace=wrap;html=1;" vertex="1" parent="8il4gLIDHbuwUqytjjS0-161">
          <mxGeometry y="100" width="240" height="26" as="geometry" />
        </mxCell>
        <mxCell id="8il4gLIDHbuwUqytjjS0-165" value="+ isLoaded(modId: String): boolean" style="text;strokeColor=none;fillColor=none;align=left;verticalAlign=top;spacingLeft=4;spacingRight=4;overflow=hidden;rotatable=0;points=[[0,0.5],[1,0.5]];portConstraint=eastwest;whiteSpace=wrap;html=1;" vertex="1" parent="8il4gLIDHbuwUqytjjS0-161">
          <mxGeometry y="126" width="240" height="26" as="geometry" />
        </mxCell>
        <mxCell id="8il4gLIDHbuwUqytjjS0-166" value="&lt;u&gt;+ getMod(modId: String): SupportedMods&lt;/u&gt;" style="text;strokeColor=none;fillColor=none;align=left;verticalAlign=top;spacingLeft=4;spacingRight=4;overflow=hidden;rotatable=0;points=[[0,0.5],[1,0.5]];portConstraint=eastwest;whiteSpace=wrap;html=1;" vertex="1" parent="8il4gLIDHbuwUqytjjS0-161">
          <mxGeometry y="152" width="240" height="26" as="geometry" />
        </mxCell>
        <mxCell id="8il4gLIDHbuwUqytjjS0-168" value="&amp;lt;&amp;lt;abstract&amp;gt;&amp;gt;&lt;br&gt;&lt;b&gt;SupportedModsHelper&lt;/b&gt;" style="swimlane;fontStyle=0;childLayout=stackLayout;horizontal=1;startSize=40;fillColor=none;horizontalStack=0;resizeParent=1;resizeParentMax=0;resizeLast=0;collapsible=1;marginBottom=0;whiteSpace=wrap;html=1;" vertex="1" parent="8il4gLIDHbuwUqytjjS0-160">
          <mxGeometry x="340" y="60" width="230" height="92" as="geometry" />
        </mxCell>
        <mxCell id="8il4gLIDHbuwUqytjjS0-173" value="&lt;i&gt;+ isModLoaded(modId: String): boolean&lt;/i&gt;" style="text;strokeColor=none;fillColor=none;align=left;verticalAlign=top;spacingLeft=4;spacingRight=4;overflow=hidden;rotatable=0;points=[[0,0.5],[1,0.5]];portConstraint=eastwest;whiteSpace=wrap;html=1;" vertex="1" parent="8il4gLIDHbuwUqytjjS0-168">
          <mxGeometry y="40" width="230" height="26" as="geometry" />
        </mxCell>
        <mxCell id="8il4gLIDHbuwUqytjjS0-174" value="+ i" style="text;strokeColor=none;fillColor=none;align=left;verticalAlign=top;spacingLeft=4;spacingRight=4;overflow=hidden;rotatable=0;points=[[0,0.5],[1,0.5]];portConstraint=eastwest;whiteSpace=wrap;html=1;" vertex="1" parent="8il4gLIDHbuwUqytjjS0-168">
          <mxGeometry y="66" width="230" height="26" as="geometry" />
        </mxCell>
        <mxCell id="8il4gLIDHbuwUqytjjS0-177" value="CraftCreatorAPI" style="swimlane;fontStyle=0;childLayout=stackLayout;horizontal=1;startSize=26;fillColor=none;horizontalStack=0;resizeParent=1;resizeParentMax=0;resizeLast=0;collapsible=1;marginBottom=0;whiteSpace=wrap;html=1;" vertex="1" parent="8il4gLIDHbuwUqytjjS0-160">
          <mxGeometry x="325" y="192" width="140" height="104" as="geometry" />
        </mxCell>
        <mxCell id="8il4gLIDHbuwUqytjjS0-178" value="+ field: type" style="text;strokeColor=none;fillColor=none;align=left;verticalAlign=top;spacingLeft=4;spacingRight=4;overflow=hidden;rotatable=0;points=[[0,0.5],[1,0.5]];portConstraint=eastwest;whiteSpace=wrap;html=1;" vertex="1" parent="8il4gLIDHbuwUqytjjS0-177">
          <mxGeometry y="26" width="140" height="26" as="geometry" />
        </mxCell>
        <mxCell id="8il4gLIDHbuwUqytjjS0-179" value="+ field: type" style="text;strokeColor=none;fillColor=none;align=left;verticalAlign=top;spacingLeft=4;spacingRight=4;overflow=hidden;rotatable=0;points=[[0,0.5],[1,0.5]];portConstraint=eastwest;whiteSpace=wrap;html=1;" vertex="1" parent="8il4gLIDHbuwUqytjjS0-177">
          <mxGeometry y="52" width="140" height="26" as="geometry" />
        </mxCell>
        <mxCell id="8il4gLIDHbuwUqytjjS0-180" value="+ field: type" style="text;strokeColor=none;fillColor=none;align=left;verticalAlign=top;spacingLeft=4;spacingRight=4;overflow=hidden;rotatable=0;points=[[0,0.5],[1,0.5]];portConstraint=eastwest;whiteSpace=wrap;html=1;" vertex="1" parent="8il4gLIDHbuwUqytjjS0-177">
          <mxGeometry y="78" width="140" height="26" as="geometry" />
        </mxCell>
      </root>
    </mxGraphModel>
  </diagram>
  <diagram id="nadWhIDxEbqdmGLJFd3C" name="Adapters">
    <mxGraphModel dx="2046" dy="1071" grid="1" gridSize="10" guides="1" tooltips="1" connect="1" arrows="1" fold="1" page="1" pageScale="1" pageWidth="850" pageHeight="1100" math="0" shadow="0">
      <root>
        <mxCell id="0" />
        <mxCell id="1" parent="0" />
      </root>
    </mxGraphModel>
  </diagram>
</mxfile>
